<svg xmlns="http://www.w3.org/2000/svg" width="720" height="150" viewBox="0 0 720 150" role="img" aria-label="Pediatra en Español"><rect width="720" height="150" rx="26" fill="#ffffff"/><circle cx="72" cy="75" r="42" fill="#DEF3F0"/><path d="M72 42c-15 0-27 12-27 27 0 29 27 43 27 43s27-14 27-43c0-15-12-27-27-27zm0 36a10 10 0 1 1 0-20 10 10 0 0 1 0 20z" fill="#2A9D8F"/><path d="M121 88c18-1 33-14 35-32 3 20 17 33 37 35-20 3-34 16-37 36-2-20-17-34-35-39z" fill="#E76F51" opacity=".9"/><text x="215" y="68" font-family="Arial, Helvetica, sans-serif" font-size="40" font-weight="800" fill="#264653">Pediatra en Español</text><text x="217" y="102" font-family="Arial, Helvetica, sans-serif" font-size="19" fill="#64748B">Orientación pediátrica online para familias latinas en USA</text></svg>