<svg xmlns="http://www.w3.org/2000/svg" width="960" height="620" viewBox="0 0 960 620" role="img" aria-label="consulta dermatitis panal">
<rect width="960" height="620" rx="34" fill="#efe2d9"/>
<circle cx="760" cy="135" r="88" fill="#fff" opacity=".72"/>
<circle cx="210" cy="500" r="120" fill="#fff" opacity=".58"/>
<path d="M360 250c0-72 58-130 130-130s130 58 130 130-58 130-130 130-130-58-130-130z" fill="#fff" opacity=".92"/>
<path d="M432 285c35 45 102 45 137 0" fill="none" stroke="#8d6f5f" stroke-width="17" stroke-linecap="round"/>
<path d="M408 226c14-18 38-29 62-29 25 0 49 11 64 29" fill="none" stroke="#8d6f5f" stroke-width="14" stroke-linecap="round"/>
<path d="M338 432c78-52 150-52 228 0 42 28 85 37 134 25" fill="none" stroke="#8d6f5f" stroke-width="18" stroke-linecap="round"/>
<text x="480" y="545" text-anchor="middle" font-family="Arial, sans-serif" font-size="34" fill="#342b26" font-weight="700">consulta dermatitis panal</text>
</svg>